<svg height="1390" width="720" xmlns="http://www.w3.org/2000/svg">
<rect height="1390" fill="#555" width="720"></rect>
<text fill="#7f7" font-family="Courier New" font-size="12" xml:space="preserve">
<tspan x="10" y="26">3 megabytes installed</tspan>
<tspan x="10" y="42"></tspan>
<tspan x="10" y="58">node_modules</tspan>
<tspan x="10" y="74">└─┬ gulp-inject@4.2.0 </tspan>
<tspan x="10" y="90">  ├── arrify@1.0.1 </tspan>
<tspan x="10" y="106">  ├── escape-string-regexp@1.0.5 </tspan>
<tspan x="10" y="122">  ├─┬ event-stream@3.3.4 </tspan>
<tspan x="10" y="138">  │ ├── duplexer@0.1.1 </tspan>
<tspan x="10" y="154">  │ ├── from@0.1.7 </tspan>
<tspan x="10" y="170">  │ ├── map-stream@0.1.0 </tspan>
<tspan x="10" y="186">  │ ├── pause-stream@0.0.11 </tspan>
<tspan x="10" y="202">  │ ├── split@0.3.3 </tspan>
<tspan x="10" y="218">  │ ├── stream-combiner@0.0.4 </tspan>
<tspan x="10" y="234">  │ └── through@2.3.8 </tspan>
<tspan x="10" y="250">  ├─┬ group-array@0.3.2 </tspan>
<tspan x="10" y="266">  │ ├── arr-flatten@1.0.1 </tspan>
<tspan x="10" y="282">  │ ├─┬ for-own@0.1.5 </tspan>
<tspan x="10" y="298">  │ │ └── for-in@1.0.2 </tspan>
<tspan x="10" y="314">  │ ├── get-value@2.0.6 </tspan>
<tspan x="10" y="330">  │ ├─┬ kind-of@3.1.0 </tspan>
<tspan x="10" y="346">  │ │ └── is-buffer@1.1.5 </tspan>
<tspan x="10" y="362">  │ └─┬ union-value@0.2.4 </tspan>
<tspan x="10" y="378">  │   ├── arr-union@3.1.0 </tspan>
<tspan x="10" y="394">  │   ├── is-extendable@0.1.1 </tspan>
<tspan x="10" y="410">  │   └─┬ set-value@0.4.3 </tspan>
<tspan x="10" y="426">  │     ├── extend-shallow@2.0.1 </tspan>
<tspan x="10" y="442">  │     ├─┬ is-plain-object@2.0.1 </tspan>
<tspan x="10" y="458">  │     │ └── isobject@1.0.2 </tspan>
<tspan x="10" y="474">  │     └── to-object-path@0.3.0 </tspan>
<tspan x="10" y="490">  ├─┬ gulp-util@3.0.8 </tspan>
<tspan x="10" y="506">  │ ├── array-differ@1.0.0 </tspan>
<tspan x="10" y="522">  │ ├── array-uniq@1.0.3 </tspan>
<tspan x="10" y="538">  │ ├── beeper@1.1.1 </tspan>
<tspan x="10" y="554">  │ ├─┬ chalk@1.1.3 </tspan>
<tspan x="10" y="570">  │ │ ├── ansi-styles@2.2.1 </tspan>
<tspan x="10" y="586">  │ │ ├─┬ has-ansi@2.0.0 </tspan>
<tspan x="10" y="602">  │ │ │ └── ansi-regex@2.1.1 </tspan>
<tspan x="10" y="618">  │ │ ├── strip-ansi@3.0.1 </tspan>
<tspan x="10" y="634">  │ │ └── supports-color@2.0.0 </tspan>
<tspan x="10" y="650">  │ ├── dateformat@2.0.0 </tspan>
<tspan x="10" y="666">  │ ├─┬ fancy-log@1.3.0 </tspan>
<tspan x="10" y="682">  │ │ └── time-stamp@1.0.1 </tspan>
<tspan x="10" y="698">  │ ├─┬ gulplog@1.0.0 </tspan>
<tspan x="10" y="714">  │ │ └── glogg@1.0.0 </tspan>
<tspan x="10" y="730">  │ ├─┬ has-gulplog@0.1.0 </tspan>
<tspan x="10" y="746">  │ │ └── sparkles@1.0.0 </tspan>
<tspan x="10" y="762">  │ ├── lodash._reescape@3.0.0 </tspan>
<tspan x="10" y="778">  │ ├── lodash._reevaluate@3.0.0 </tspan>
<tspan x="10" y="794">  │ ├── lodash._reinterpolate@3.0.0 </tspan>
<tspan x="10" y="810">  │ ├─┬ lodash.template@3.6.2 </tspan>
<tspan x="10" y="826">  │ │ ├── lodash._basecopy@3.0.1 </tspan>
<tspan x="10" y="842">  │ │ ├── lodash._basetostring@3.0.1 </tspan>
<tspan x="10" y="858">  │ │ ├── lodash._basevalues@3.0.0 </tspan>
<tspan x="10" y="874">  │ │ ├── lodash._isiterateecall@3.0.9 </tspan>
<tspan x="10" y="890">  │ │ ├─┬ lodash.escape@3.2.0 </tspan>
<tspan x="10" y="906">  │ │ │ └── lodash._root@3.0.1 </tspan>
<tspan x="10" y="922">  │ │ ├─┬ lodash.keys@3.1.2 </tspan>
<tspan x="10" y="938">  │ │ │ ├── lodash._getnative@3.9.1 </tspan>
<tspan x="10" y="954">  │ │ │ ├── lodash.isarguments@3.1.0 </tspan>
<tspan x="10" y="970">  │ │ │ └── lodash.isarray@3.0.4 </tspan>
<tspan x="10" y="986">  │ │ ├── lodash.restparam@3.6.1 </tspan>
<tspan x="10" y="1002">  │ │ └── lodash.templatesettings@3.1.1 </tspan>
<tspan x="10" y="1018">  │ ├── minimist@1.2.0 </tspan>
<tspan x="10" y="1034">  │ ├─┬ multipipe@0.1.2 </tspan>
<tspan x="10" y="1050">  │ │ └─┬ duplexer2@0.0.2 </tspan>
<tspan x="10" y="1066">  │ │   └─┬ readable-stream@1.1.14 </tspan>
<tspan x="10" y="1082">  │ │     ├── isarray@0.0.1 </tspan>
<tspan x="10" y="1098">  │ │     └── string_decoder@0.10.31 </tspan>
<tspan x="10" y="1114">  │ ├── object-assign@3.0.0 </tspan>
<tspan x="10" y="1130">  │ ├── replace-ext@0.0.1 </tspan>
<tspan x="10" y="1146">  │ └─┬ vinyl@0.5.3 </tspan>
<tspan x="10" y="1162">  │   ├── clone@1.0.2 </tspan>
<tspan x="10" y="1178">  │   └── clone-stats@0.0.1 </tspan>
<tspan x="10" y="1194">  ├─┬ stream-to-array@2.3.0 </tspan>
<tspan x="10" y="1210">  │ └── any-promise@1.3.0 </tspan>
<tspan x="10" y="1226">  └─┬ through2@2.0.3 </tspan>
<tspan x="10" y="1242">    ├─┬ readable-stream@2.2.9 </tspan>
<tspan x="10" y="1258">    │ ├── buffer-shims@1.0.0 </tspan>
<tspan x="10" y="1274">    │ ├── core-util-is@1.0.2 </tspan>
<tspan x="10" y="1290">    │ ├── inherits@2.0.3 </tspan>
<tspan x="10" y="1306">    │ ├── isarray@1.0.0 </tspan>
<tspan x="10" y="1322">    │ ├── process-nextick-args@1.0.7 </tspan>
<tspan x="10" y="1338">    │ ├── string_decoder@1.0.0 </tspan>
<tspan x="10" y="1354">    │ └── util-deprecate@1.0.2 </tspan>
<tspan x="10" y="1370">    └── xtend@4.0.1</tspan>
</text>
</svg>
